<?xml version="1.0" encoding="utf-8"?>
<!-- Generator: Adobe Illustrator 25.2.3, SVG Export Plug-In . SVG Version: 6.00 Build 0)  -->
<svg version="1.1" id="Layer_1" xmlns="http://www.w3.org/2000/svg" xmlns:xlink="http://www.w3.org/1999/xlink" x="0px" y="0px"
	 viewBox="0 0 300 200" style="enable-background:new 0 0 300 200;" xml:space="preserve">
<style type="text/css">
	.st0{fill:#333333;}
	.st1{fill:#211F1F;}
</style>
<path class="st0" d="M0.28,143.8V59.07c0-4.89,3.97-8.86,8.86-8.86h0c4.89,0,8.86,3.97,8.86,8.86v23.35c2.26-3.02,5.3-5.39,9.11-7.1
	c3.81-1.71,8.01-2.57,12.63-2.57c5.31,0,10.03,1.16,14.17,3.49c4.14,2.33,7.37,5.74,9.69,10.25c2.32,4.51,3.49,9.91,3.49,16.21
	v41.12H49.37v-38.8c0-5.57-1.39-9.85-4.17-12.84s-6.58-4.48-11.39-4.48c-4.9,0-8.76,1.49-11.58,4.48C19.41,95.16,18,99.44,18,105.01
	v38.8H0.28z"/>
<path class="st0" d="M161.79,143.8V59.07c0-4.89,3.97-8.86,8.86-8.86h0c4.89,0,8.86,3.97,8.86,8.86v84.74H161.79z"/>
<path class="st0" d="M196.31,143.8V82.59c0-4.89,3.97-8.86,8.86-8.86h0c4.89,0,8.86,3.97,8.86,8.86v61.21H196.31z"/>
<path class="st0" d="M227.67,108.77c0-7.15,1.57-13.48,4.73-18.97c3.15-5.49,7.47-9.72,12.95-12.71c5.48-2.98,11.6-4.47,18.35-4.47
	c6.74,0,12.85,1.49,18.32,4.47c5.47,2.98,9.79,7.22,12.95,12.71c3.17,5.49,4.75,11.82,4.75,18.97c0,7.17-1.62,13.49-4.87,18.97
	c-3.25,5.48-7.63,9.71-13.14,12.7s-11.68,4.48-18.51,4.48c-6.76,0-12.83-1.49-18.23-4.48c-5.4-2.99-9.63-7.22-12.7-12.7
	C229.2,122.26,227.67,115.94,227.67,108.77z M245.63,108.77c0,6.66,1.66,11.78,4.99,15.35c3.33,3.58,7.52,5.36,12.57,5.36
	c3.21,0,6.21-0.78,9.03-2.34c2.81-1.56,5.06-3.9,6.75-7.03c1.68-3.13,2.53-6.91,2.53-11.34c0-6.66-1.75-11.78-5.24-15.35
	c-3.49-3.58-7.76-5.36-12.82-5.36s-9.29,1.79-12.7,5.36C247.34,96.99,245.63,102.11,245.63,108.77z"/>
<path class="st1" d="M14.12,167.46c1.89,0.95,3.33,2.33,4.33,4.12c1,1.8,1.5,3.93,1.5,6.41c0,2.45-0.5,4.57-1.5,6.36
	c-1,1.78-2.44,3.15-4.33,4.09c-1.89,0.94-4.15,1.41-6.78,1.41H0.28v-23.82h7.05C9.97,166.02,12.23,166.5,14.12,167.46z
	 M14.92,185.26c1.74-1.74,2.61-4.16,2.61-7.28c0-3.14-0.87-5.58-2.61-7.35c-1.74-1.76-4.27-2.64-7.58-2.64H2.67v19.87h4.67
	C10.65,187.87,13.18,187,14.92,185.26z"/>
<path class="st1" d="M30.99,166.02v23.82h-2.39v-23.82H30.99z"/>
<path class="st1" d="M59.41,172.98c-0.68-1.57-1.72-2.8-3.12-3.7c-1.4-0.9-3.04-1.35-4.92-1.35c-1.77,0-3.36,0.41-4.77,1.23
	c-1.41,0.82-2.52,1.98-3.34,3.49c-0.82,1.51-1.23,3.27-1.23,5.27c0,2,0.41,3.76,1.23,5.28c0.82,1.52,1.93,2.69,3.34,3.51
	c1.41,0.82,3,1.23,4.77,1.23c1.66,0,3.15-0.36,4.48-1.07c1.33-0.72,2.4-1.74,3.2-3.07c0.81-1.33,1.27-2.88,1.38-4.65H50.42v-1.94
	h12.54v1.74c-0.11,2.09-0.68,3.98-1.7,5.67c-1.02,1.69-2.39,3.03-4.11,4c-1.72,0.98-3.64,1.47-5.78,1.47c-2.2,0-4.2-0.52-6-1.55
	c-1.8-1.03-3.21-2.48-4.24-4.33c-1.03-1.85-1.55-3.95-1.55-6.29c0-2.34,0.52-4.43,1.55-6.29c1.03-1.85,2.45-3.29,4.24-4.33
	c1.79-1.03,3.79-1.55,6-1.55c2.54,0,4.77,0.64,6.68,1.91c1.91,1.27,3.29,3.05,4.16,5.32H59.41z"/>
<path class="st1" d="M73.97,166.02v23.82h-2.39v-23.82H73.97z"/>
<path class="st1" d="M97.58,166.02V168h-6.61v21.85h-2.39V168h-6.65v-1.98H97.58z"/>
<path class="st1" d="M119.43,184.19h-10.84l-2.08,5.66h-2.52l8.69-23.52h2.69l8.66,23.52h-2.52L119.43,184.19z M118.71,182.21
	l-4.7-12.88l-4.7,12.88H118.71z"/>
<path class="st1" d="M134.49,187.9h8.55v1.94h-10.94v-23.82h2.39V187.9z"/>
<path class="st1" d="M167.4,189.27c-1.19-0.54-2.13-1.31-2.81-2.28c-0.68-0.98-1.05-2.07-1.09-3.27h2.52
	c0.11,1.16,0.62,2.18,1.53,3.05c0.91,0.88,2.24,1.31,3.99,1.31c1.61,0,2.89-0.41,3.83-1.24c0.94-0.83,1.41-1.88,1.41-3.15
	c0-1.02-0.26-1.85-0.78-2.47c-0.52-0.62-1.17-1.09-1.94-1.4c-0.77-0.31-1.84-0.64-3.2-1.01c-1.59-0.43-2.85-0.85-3.78-1.26
	c-0.93-0.41-1.73-1.04-2.39-1.91c-0.66-0.86-0.99-2.03-0.99-3.51c0-1.23,0.32-2.32,0.95-3.29c0.64-0.97,1.53-1.72,2.69-2.27
	c1.16-0.55,2.49-0.82,3.99-0.82c2.2,0,3.98,0.54,5.33,1.62c1.35,1.08,2.13,2.47,2.33,4.18h-2.59c-0.16-0.98-0.69-1.85-1.6-2.61
	c-0.91-0.76-2.14-1.14-3.68-1.14c-1.43,0-2.62,0.38-3.58,1.14c-0.95,0.76-1.43,1.8-1.43,3.12c0,1,0.26,1.81,0.78,2.42
	c0.52,0.61,1.18,1.08,1.96,1.4s1.85,0.66,3.19,1.02c1.54,0.43,2.79,0.86,3.75,1.28c0.95,0.42,1.76,1.06,2.42,1.92
	c0.66,0.86,0.99,2.02,0.99,3.48c0,1.11-0.3,2.17-0.89,3.17c-0.59,1-1.47,1.81-2.63,2.42c-1.16,0.61-2.54,0.92-4.16,0.92
	C169.97,190.08,168.59,189.81,167.4,189.27z"/>
<path class="st1" d="M202.01,166.02V168h-6.61v21.85h-2.39V168h-6.65v-1.98H202.01z"/>
<path class="st1" d="M212.33,166.02v15c0,2.36,0.56,4.11,1.69,5.25c1.12,1.14,2.66,1.7,4.62,1.7c1.95,0,3.48-0.56,4.58-1.69
	c1.1-1.12,1.65-2.88,1.65-5.27v-15h2.39v14.96c0,3.02-0.8,5.29-2.4,6.82c-1.6,1.52-3.69,2.28-6.25,2.28c-2.57,0-4.65-0.76-6.25-2.28
	c-1.6-1.52-2.4-3.79-2.4-6.82v-14.96H212.33z"/>
<path class="st1" d="M250.68,167.46c1.89,0.95,3.33,2.33,4.33,4.12c1,1.8,1.5,3.93,1.5,6.41c0,2.45-0.5,4.57-1.5,6.36
	c-1,1.78-2.44,3.15-4.33,4.09c-1.89,0.94-4.15,1.41-6.78,1.41h-7.05v-23.82h7.05C246.53,166.02,248.79,166.5,250.68,167.46z
	 M251.48,185.26c1.74-1.74,2.61-4.16,2.61-7.28c0-3.14-0.87-5.58-2.61-7.35c-1.74-1.76-4.27-2.64-7.58-2.64h-4.67v19.87h4.67
	C247.21,187.87,249.74,187,251.48,185.26z"/>
<path class="st1" d="M267.54,166.02v23.82h-2.39v-23.82H267.54z"/>
<path class="st1" d="M281.93,188.53c-1.8-1.03-3.21-2.48-4.24-4.33c-1.03-1.85-1.55-3.95-1.55-6.29c0-2.34,0.52-4.43,1.55-6.29
	c1.03-1.85,2.45-3.29,4.24-4.33c1.79-1.03,3.79-1.55,6-1.55c2.23,0,4.24,0.52,6.03,1.55c1.79,1.03,3.2,2.48,4.23,4.33
	c1.02,1.85,1.53,3.95,1.53,6.29c0,2.34-0.51,4.44-1.53,6.29c-1.02,1.85-2.43,3.29-4.23,4.33c-1.8,1.03-3.81,1.55-6.03,1.55
	C285.72,190.08,283.72,189.57,281.93,188.53z M292.7,186.78c1.41-0.82,2.52-1.99,3.34-3.53c0.82-1.53,1.23-3.31,1.23-5.33
	c0-2.02-0.41-3.79-1.23-5.32c-0.82-1.52-1.93-2.69-3.34-3.51c-1.41-0.82-3-1.23-4.77-1.23s-3.36,0.41-4.77,1.23
	c-1.41,0.82-2.52,1.99-3.34,3.51c-0.82,1.52-1.23,3.29-1.23,5.32c0,2.02,0.41,3.8,1.23,5.33c0.82,1.53,1.93,2.71,3.34,3.53
	c1.41,0.82,3,1.23,4.77,1.23S291.29,187.6,292.7,186.78z"/>
<g>
	<path class="st0" d="M79.15,108.8c0-7.24,1.47-13.61,4.42-19.11c2.94-5.5,7.07-9.71,12.38-12.66c5.31-2.94,11.42-4.42,18.34-4.42
		c6.67,0,12.63,1.43,17.9,4.29c5.27,2.86,9.35,6.93,12.26,12.19c2.9,5.27,4.35,11.32,4.35,18.15c0,2.55-0.17,4.84-0.49,6.85H97.07
		c0.41,5.08,2.18,9.06,5.31,11.93c3.13,2.87,6.98,4.31,11.55,4.31c6.58,0,11.25-2.84,14.01-8.52h19.08
		c-2.02,6.75-5.89,12.28-11.61,16.61c-5.72,4.32-12.76,6.48-21.12,6.48c-6.75,0-12.8-1.49-18.15-4.48
		c-5.35-2.98-9.52-7.21-12.5-12.68C80.65,122.28,79.15,115.96,79.15,108.8z M97.31,102.19h33.28c-0.08-4.55-1.73-8.18-4.94-10.91
		c-3.21-2.73-7.12-4.09-11.73-4.09c-4.36,0-8.05,1.33-11.05,4C99.86,93.85,98.01,97.52,97.31,102.19z"/>
</g>
<circle class="st0" cx="205.17" cy="20.02" r="10.08"/>
</svg>
